<svg width="27" height="27" viewBox="0 0 27 27" fill="none" xmlns="http://www.w3.org/2000/svg">
<path d="M19.8236 0L6.72412 0.00449994C5.18287 0.00449994 3.62362 0.392619 2.49187 1.25323C1.6984 1.82983 1.07315 2.6077 0.680625 3.50657C0.262125 4.42119 0 5.64742 0 6.69478L0.0135 20.4196C0.01575 22.2241 0.552375 23.8587 1.65712 25.0455C2.76412 26.2335 4.42687 26.9389 6.5295 26.9479L18.963 26.9996C20.3805 27.0052 22.4449 26.9591 23.8039 26.1964C25.0132 25.5158 26.082 24.4459 26.613 22.8394C26.9257 21.8944 27.0011 20.495 27 19.2991L26.9764 6.77803C26.9741 5.77904 26.8076 4.50219 26.361 3.47733C25.8829 2.37934 25.0324 1.43548 23.7487 0.749239C22.8971 0.292496 21.5122 0 19.8236 0ZM19.8236 1.04624C21.3739 1.04624 22.6789 1.37811 23.2436 1.68185C24.3427 2.27022 24.9806 2.99358 25.3687 3.88682C25.7231 4.69793 25.8975 5.90392 25.9009 6.78028L25.9211 19.3013C25.9234 20.441 25.812 21.8404 25.5859 22.5188C25.1404 23.871 24.2966 24.708 23.265 25.2885C22.3492 25.8026 20.3265 25.9556 18.9675 25.95L6.53625 25.9005C4.67212 25.8926 3.35025 25.2998 2.457 24.3413C1.566 23.3839 1.0935 22.0238 1.0935 20.4207L1.12387 6.69365C1.12387 5.76104 1.34437 4.63831 1.65712 3.95207C2.04525 3.10046 2.50087 2.59421 3.19275 2.06885C4.03312 1.42873 5.4765 1.09123 6.84 1.09123L19.8236 1.04624ZM13.4561 4.89706C11.2331 4.99718 9.85162 6.76228 9.84037 8.59825C9.86175 10.2216 11.6797 12.5143 13.0849 13.6944C13.2199 13.8058 13.2581 13.8171 13.4561 13.8969C13.5259 13.9251 13.6789 13.8441 13.824 13.7451C14.229 13.4694 14.9411 12.6797 15.678 11.7898C16.1442 11.2111 16.5341 10.5747 16.8379 9.89648C17.298 8.89525 17.1315 8.09763 17.1022 7.77251C16.8946 7.05547 16.5119 6.40133 15.9885 5.86904C15.2937 5.24291 14.3914 4.8966 13.4561 4.89706ZM18.1496 13.8092C16.9039 13.8383 15.6713 14.07 14.5001 14.4954C14.3314 14.5607 14.2076 14.6079 14.0794 14.6867C14.0152 14.7272 13.9556 14.8385 13.9612 15.0152C13.9804 15.5023 14.2875 16.4529 14.6632 17.5689C15.0952 18.8457 15.8625 20.1226 16.7377 20.6513C17.1611 20.9055 17.6319 21.0707 18.1212 21.1368C18.6106 21.203 19.1083 21.1687 19.584 21.0361C20.52 20.7627 21.3784 20.0596 21.7912 19.2968C22.9005 17.2516 22.005 15.3054 20.5301 14.3278C20.0272 13.9948 19.2555 13.8272 18.4039 13.8103L18.1496 13.8092ZM8.66362 13.8519C8.38079 13.8518 8.09824 13.8695 7.81762 13.9048C7.14712 13.9925 6.76912 14.2119 6.36637 14.4785C5.58289 14.9911 5.03157 15.7904 4.83075 16.7049C4.74637 17.3259 4.734 17.8895 4.86787 18.4002C5.355 19.9628 6.35962 20.9 8.07075 21.1587C8.78625 21.1902 9.612 21.0878 10.3095 20.6525C11.7371 19.7727 12.6495 17.0863 13.023 15.3178C13.0826 15.1198 13.0624 14.9162 13.0084 14.8453C13.0027 14.7699 12.9589 14.7182 12.7946 14.6394C12.3469 14.4234 11.3096 14.1703 10.1227 13.9644C9.64042 13.8858 9.1523 13.8482 8.66362 13.8519Z" fill="#F3E7D5"/>
</svg>
