<?xml version="1.0" encoding="UTF-8"?>
<svg id="Calque_1" xmlns="http://www.w3.org/2000/svg" version="1.1" viewBox="0 0 708.66 708.66">
  <!-- Generator: Adobe Illustrator 29.3.1, SVG Export Plug-In . SVG Version: 2.1.0 Build 151)  -->
  <defs>
    <style>
      .st0 {
        fill: #f4e7d6;
      }
    </style>
  </defs>
  <path class="st0" d="M262.81,503.84c-28.37-31.85-42.55-70.52-42.55-115.98,0-34.58,8.54-66.27,25.66-95.02,12.81-22.53,34.77-47.22,65.87-74.03l11.65,11.65c-37.69,37.69-56.55,80.26-56.55,127.65,0,43.93,13.21,80.64,39.66,110.17,27.18,30.31,62.55,45.47,106.07,45.47,7.78,0,15.54-1.16,23.32-3.49V237.46l-39.04-18.64-19.83,18.64v192.95l-53.63,38.47-7-11.08,16.32-12.24v-162.64l-20.97,20.99-10.51-9.35,82.21-81.59c-36.15-17.1-67.24-25.66-93.29-25.66-20.59,0-38.66,6.05-54.2,18.07-17.1,13.61-25.66,30.12-25.66,49.55,0,14.4,6.81,26.64,20.42,36.74l-6.43,12.24c-20.21-12.05-30.31-29.34-30.31-51.9,0-26.42,12.83-49.34,38.47-68.78,24.88-18.64,55.38-27.96,91.53-27.96,49.74,0,99.29,12.62,148.65,37.88l31.47-29.72,10.48,9.32-65.27,64.7v268.14c10.86-3.89,29.13-18.64,54.79-44.31l10.48,7.59c-36.15,56.36-82.78,84.51-139.89,84.51-45.09,0-82.4-16.51-111.93-49.55Z"/>
</svg>