<svg width="29" height="29" viewBox="0 0 29 29" fill="none" xmlns="http://www.w3.org/2000/svg">
<g clip-path="url(#clip0_70_78)">
<path d="M11.4724 15.0606C11.4724 15.1867 11.4724 15.1867 11.3743 15.1867H8.89331C9.35586 13.7851 9.84644 12.2993 10.295 10.8416C10.295 10.9537 10.295 11.0658 10.3931 11.178C10.4912 11.2901 10.5192 11.6405 10.5753 11.8648L10.8276 12.6497C10.8276 12.916 10.9818 13.1683 11.0659 13.4346L11.3322 14.2336L11.4724 15.0606Z" fill="#F3E7D5"/>
<path d="M21.6204 14.1777C21.5426 13.9405 21.4028 13.7283 21.2155 13.5632C21.0282 13.3981 20.8003 13.286 20.5551 13.2386C20.2999 13.1967 20.0395 13.1967 19.7842 13.2386C19.5953 13.2754 19.417 13.3535 19.2619 13.4674C19.1068 13.5813 18.9788 13.7281 18.8872 13.8973C18.7452 14.1491 18.6502 14.4246 18.6068 14.7103H21.5083C21.6484 14.7103 21.6905 14.7103 21.6765 14.5141C21.6716 14.4001 21.6527 14.2871 21.6204 14.1777ZM21.6204 14.1777C21.5426 13.9405 21.4028 13.7283 21.2155 13.5632C21.0282 13.3981 20.8003 13.286 20.5551 13.2386C20.2999 13.1967 20.0395 13.1967 19.7842 13.2386C19.5953 13.2754 19.417 13.3535 19.2619 13.4674C19.1068 13.5813 18.9788 13.7281 18.8872 13.8973C18.7452 14.1491 18.6502 14.4246 18.6068 14.7103H21.5083C21.6484 14.7103 21.6905 14.7103 21.6765 14.5141C21.6716 14.4001 21.6527 14.2871 21.6204 14.1777ZM21.6204 14.1777C21.5426 13.9405 21.4028 13.7283 21.2155 13.5632C21.0282 13.3981 20.8003 13.286 20.5551 13.2386C20.2999 13.1967 20.0395 13.1967 19.7842 13.2386C19.5953 13.2754 19.417 13.3535 19.2619 13.4674C19.1068 13.5813 18.9788 13.7281 18.8872 13.8973C18.7452 14.1491 18.6502 14.4246 18.6068 14.7103H21.5083C21.6484 14.7103 21.6905 14.7103 21.6765 14.5141C21.6716 14.4001 21.6527 14.2871 21.6204 14.1777ZM21.6204 14.1777C21.5426 13.9405 21.4028 13.7283 21.2155 13.5632C21.0282 13.3981 20.8003 13.286 20.5551 13.2386C20.2999 13.1967 20.0395 13.1967 19.7842 13.2386C19.5953 13.2754 19.417 13.3535 19.2619 13.4674C19.1068 13.5813 18.9788 13.7281 18.8872 13.8973C18.7452 14.1491 18.6502 14.4246 18.6068 14.7103H21.5083C21.6484 14.7103 21.6905 14.7103 21.6765 14.5141C21.6716 14.4001 21.6527 14.2871 21.6204 14.1777ZM21.5083 0.483398H7.49161C5.63288 0.483398 3.85029 1.22177 2.53597 2.53609C1.22165 3.85041 0.483276 5.63301 0.483276 7.49173V21.5084C0.483276 23.3671 1.22165 25.1497 2.53597 26.464C3.85029 27.7784 5.63288 28.5167 7.49161 28.5167H21.5083C23.367 28.5167 25.1496 27.7784 26.4639 26.464C27.7782 25.1497 28.5166 23.3671 28.5166 21.5084V7.49173C28.5166 5.63301 27.7782 3.85041 26.4639 2.53609C25.1496 1.22177 23.367 0.483398 21.5083 0.483398ZM15.5232 20.1067H13.2525C13.2136 20.1126 13.1738 20.1067 13.1383 20.0897C13.1028 20.0727 13.0732 20.0454 13.0534 20.0114C13.0403 19.989 13.0317 19.9643 13.0282 19.9385C12.9161 19.5881 12.7899 19.2517 12.6778 18.9013C12.5656 18.5509 12.3974 18.1023 12.2713 17.6959C12.2713 17.4716 12.0891 17.4436 11.8928 17.4436H8.36064C8.20646 17.4436 8.20646 17.4436 8.15039 17.6118C8.09433 17.78 8.01023 18.0743 7.92613 18.3126L7.70186 19.0415L7.40751 19.8965C7.41506 19.9335 7.41506 19.9716 7.40751 20.0086C7.40751 20.1908 7.18324 20.1628 7.04308 20.1628H5.23493C5.02468 20.1628 4.95459 20.0647 5.03869 19.8684C5.12279 19.6722 5.19288 19.4479 5.26296 19.2517L5.55731 18.3546L6.10396 16.8128C6.25814 16.3923 6.39831 15.9578 6.53848 15.5233C6.67864 15.0888 6.80479 14.7804 6.94496 14.4019L7.23931 13.5189L7.75793 12.1172L8.17843 10.8838C8.31859 10.4913 8.45876 10.0988 8.58491 9.69235C8.6046 9.50129 8.6046 9.30872 8.58491 9.11766C8.58491 8.82331 8.58491 8.82331 8.87926 8.82331H11.4163C11.6405 8.82331 11.6265 8.82332 11.6966 9.03357C11.7667 9.24382 11.9489 9.72038 12.061 10.0568C12.1732 10.3932 12.2713 10.6455 12.3694 10.9258L12.7058 11.8369L13.0422 12.8181C13.1824 13.1965 13.3225 13.5609 13.4487 13.9394L13.8131 14.9486C13.9253 15.285 14.0514 15.6214 14.1776 15.9718C14.3037 16.3222 14.3458 16.4904 14.4439 16.7427C14.542 16.995 14.6401 17.3034 14.7522 17.5837C14.8644 17.8641 14.9345 18.1164 15.0326 18.3827L15.4391 19.518L15.6073 20.0086C15.6633 19.9946 15.6213 20.1067 15.5232 20.1067ZM23.9332 15.9017C23.9397 16.0279 23.9397 16.154 23.9332 16.2802C23.9332 16.4063 23.7229 16.4484 23.5968 16.4484H18.6489C18.6993 16.9081 18.9012 17.337 19.2236 17.6678C19.8076 18.0266 20.4705 18.2371 21.1546 18.2811C21.8386 18.325 22.523 18.2011 23.1482 17.9201C23.2604 17.9201 23.3164 17.9201 23.3164 18.0323V19.6161C23.3164 19.8684 23.2183 19.8965 23.0081 19.9806L22.5035 20.1348C22.3432 20.182 22.179 20.2149 22.0129 20.2329C21.6625 20.2329 21.312 20.331 20.9616 20.345C20.6112 20.359 20.4851 20.345 20.2468 20.345H20.1066C19.8263 20.345 19.5319 20.345 19.2656 20.2469C18.4924 20.0925 17.7868 19.7005 17.2472 19.1256C16.9049 18.7717 16.6379 18.3521 16.4623 17.8921C16.3205 17.5564 16.2261 17.2026 16.1819 16.8408C16.1618 16.4299 16.1618 16.0183 16.1819 15.6074C16.203 15.1014 16.2983 14.601 16.4623 14.1216C16.6001 13.7227 16.7936 13.3452 17.037 13.0003C17.3563 12.5191 17.7897 12.1242 18.2985 11.8509C18.5181 11.7238 18.747 11.6164 18.9853 11.5285C19.244 11.467 19.5061 11.4202 19.7702 11.3884C20.0085 11.3743 20.2468 11.3743 20.4851 11.3884C20.8364 11.394 21.1822 11.4407 21.5223 11.5285C21.8307 11.6154 22.125 11.7369 22.4053 11.893C22.837 12.1405 23.195 12.4985 23.4426 12.9302C23.5827 13.1825 23.6949 13.4348 23.807 13.6871C23.8668 13.8656 23.9135 14.0478 23.9472 14.2337C24.0725 14.7814 24.0868 15.3485 23.9892 15.9017H23.9332ZM20.4991 13.3086C20.2438 13.2668 19.9834 13.2668 19.7282 13.3086C19.5393 13.3454 19.3609 13.4236 19.2058 13.5375C19.0507 13.6514 18.9227 13.7982 18.8311 13.9674C18.6891 14.2192 18.5941 14.4947 18.5508 14.7804H21.5083C21.6484 14.7804 21.6905 14.7804 21.6765 14.5842C21.6649 14.4595 21.6366 14.3369 21.5924 14.2197C21.5233 13.9783 21.3905 13.7598 21.2081 13.5872C21.0256 13.4146 20.8001 13.2942 20.5551 13.2386L20.4991 13.3086ZM21.5643 14.2478C21.4865 14.0105 21.3467 13.7984 21.1594 13.6333C20.9722 13.4682 20.7442 13.3561 20.4991 13.3086C20.2438 13.2668 19.9834 13.2668 19.7282 13.3086C19.5393 13.3454 19.3609 13.4236 19.2058 13.5375C19.0507 13.6514 18.9227 13.7982 18.8311 13.9674C18.6891 14.2192 18.5941 14.4947 18.5508 14.7804H21.5083C21.6484 14.7804 21.6905 14.7804 21.6765 14.5842C21.6765 14.4459 21.6578 14.3104 21.6204 14.1777L21.5643 14.2478ZM21.5643 14.2478C21.4865 14.0105 21.3467 13.7984 21.1594 13.6333C20.9722 13.4682 20.7442 13.3561 20.4991 13.3086C20.2438 13.2668 19.9834 13.2668 19.7282 13.3086C19.5393 13.3454 19.3609 13.4236 19.2058 13.5375C19.0507 13.6514 18.9227 13.7982 18.8311 13.9674C18.6891 14.2192 18.5941 14.4947 18.5508 14.7804H21.5083C21.6484 14.7804 21.6905 14.7804 21.6765 14.5842C21.6765 14.4459 21.6578 14.3104 21.6204 14.1777L21.5643 14.2478ZM21.5643 14.2478C21.4865 14.0105 21.3467 13.7984 21.1594 13.6333C20.9722 13.4682 20.7442 13.3561 20.4991 13.3086C20.2438 13.2668 19.9834 13.2668 19.7282 13.3086C19.5393 13.3454 19.3609 13.4236 19.2058 13.5375C19.0507 13.6514 18.9227 13.7982 18.8311 13.9674C18.6891 14.2192 18.5941 14.4947 18.5508 14.7804H21.5083C21.6484 14.7804 21.6905 14.7804 21.6765 14.5842C21.6765 14.4459 21.6578 14.3104 21.6204 14.1777L21.5643 14.2478ZM21.5643 14.2478C21.4865 14.0105 21.3467 13.7984 21.1594 13.6333C20.9722 13.4682 20.7442 13.3561 20.4991 13.3086C20.2438 13.2668 19.9834 13.2668 19.7282 13.3086C19.5393 13.3454 19.3609 13.4236 19.2058 13.5375C19.0507 13.6514 18.9227 13.7982 18.8311 13.9674C18.6891 14.2192 18.5941 14.4947 18.5508 14.7804H21.5083C21.6484 14.7804 21.6905 14.7804 21.6765 14.5842C21.6765 14.4459 21.6578 14.3104 21.6204 14.1777L21.5643 14.2478Z" fill="#F3E7D5"/>
</g>
<defs>
<clipPath id="clip0_70_78">
<rect width="29" height="29" fill="white"/>
</clipPath>
</defs>
</svg>
