<svg width="29" height="29" viewBox="0 0 29 29" fill="none" xmlns="http://www.w3.org/2000/svg">
<g clip-path="url(#clip0_70_84)">
<path d="M12.3137 11.0349C12.795 12.6024 13.29 14.1699 13.785 15.7649H10.87C11.365 14.1699 11.8325 12.6024 12.3137 11.0349Z" fill="#F3E7D5"/>
<path d="M21.375 0.75H7.625C5.80164 0.75 4.05295 1.47433 2.76364 2.76364C1.47433 4.05295 0.75 5.80164 0.75 7.625V21.375C0.75 23.1984 1.47433 24.947 2.76364 26.2364C4.05295 27.5257 5.80164 28.25 7.625 28.25H21.375C23.1984 28.25 24.947 27.5257 26.2364 26.2364C27.5257 24.947 28.25 23.1984 28.25 21.375V7.625C28.25 5.80164 27.5257 4.05295 26.2364 2.76364C24.947 1.47433 23.1984 0.75 21.375 0.75ZM17.9237 21.0725H15.7788C15.6932 21.0844 15.6064 21.0622 15.537 21.0108C15.4676 20.9594 15.4211 20.8828 15.4075 20.7975C15.1462 20.0275 14.8713 19.2575 14.61 18.4738C14.6018 18.4246 14.5837 18.3776 14.557 18.3356C14.5302 18.2936 14.4952 18.2574 14.4542 18.2292C14.4131 18.2009 14.3668 18.1813 14.318 18.1713C14.2692 18.1614 14.2188 18.1613 14.17 18.1712H10.5125C10.4617 18.1593 10.409 18.1581 10.3577 18.1679C10.3064 18.1777 10.2578 18.1982 10.215 18.228C10.1722 18.2578 10.1361 18.2964 10.1092 18.3411C10.0823 18.3858 10.0651 18.4357 10.0588 18.4875C9.825 19.2575 9.56375 20 9.33 20.77C9.32346 20.8186 9.307 20.8653 9.28164 20.9073C9.25629 20.9492 9.22257 20.9855 9.1826 21.0139C9.14262 21.0422 9.09724 21.0621 9.04927 21.0722C9.0013 21.0823 8.95177 21.0824 8.90375 21.0725H7.02C6.69 21.0725 6.6625 21.0725 6.7725 20.7288L9.7425 12.1625C10.0175 11.3787 10.2925 10.595 10.54 9.81125C10.608 9.5788 10.645 9.33839 10.65 9.09625C10.65 8.8075 10.76 8.73875 11.0213 8.7525H13.6475C13.84 8.7525 13.9363 8.7525 14.005 9.01375L17.3875 18.5425C17.6488 19.285 17.91 20.0138 18.1575 20.7425C18.2675 21.045 18.2537 21.0725 17.9237 21.0725ZM22.1312 20.8388C22.1312 21.0725 22.035 21.1413 21.815 21.1413H19.835C19.56 21.1413 19.4913 21.0312 19.4913 20.7837V12.1488C19.4913 11.8737 19.5737 11.7638 19.8625 11.7775H21.8012C22.0212 11.7775 22.1312 11.7775 22.1312 12.08C22.1221 14.995 22.1221 17.9146 22.1312 20.8388ZM20.7562 10.8013C20.5592 10.8138 20.3618 10.7837 20.1775 10.7131C19.9931 10.6425 19.8261 10.5331 19.6878 10.3922C19.5495 10.2513 19.4432 10.0822 19.3761 9.89659C19.3089 9.71094 19.2826 9.513 19.2987 9.31625C19.3005 9.12068 19.3412 8.92743 19.4185 8.74778C19.4959 8.56814 19.6082 8.40571 19.7491 8.27001C19.8899 8.1343 20.0564 8.02803 20.2387 7.95741C20.4211 7.8868 20.6158 7.85326 20.8113 7.85875C21.0015 7.85814 21.1897 7.897 21.3641 7.97288C21.5386 8.04875 21.6953 8.15999 21.8246 8.29956C21.9538 8.43913 22.0527 8.60399 22.1149 8.78372C22.1772 8.96346 22.2015 9.15415 22.1863 9.34375C22.1975 9.53114 22.1703 9.71884 22.1062 9.89531C22.0422 10.0718 21.9427 10.2333 21.8139 10.3698C21.6851 10.5064 21.5297 10.6151 21.3572 10.6893C21.1848 10.7635 20.999 10.8016 20.8113 10.8013H20.7562Z" fill="#F3E7D5"/>
<path d="M13.785 15.7649H10.87C11.365 14.1699 11.8325 12.6024 12.245 11.0349C12.795 12.6024 13.29 14.1699 13.785 15.7649Z" fill="#F3E7D5"/>
</g>
<defs>
<clipPath id="clip0_70_84">
<rect width="29" height="29" fill="white"/>
</clipPath>
</defs>
</svg>
