<svg width="29" height="29" viewBox="0 0 29 29" fill="none" xmlns="http://www.w3.org/2000/svg">
<g clip-path="url(#clip0_70_81)">
<path d="M12.3687 12.41C12.3895 12.8275 12.2634 13.2391 12.0122 13.5732C11.7609 13.9073 11.4006 14.1428 10.9937 14.2388C10.276 14.4508 9.52737 14.5391 8.77998 14.5C8.58748 14.5 8.57373 14.3763 8.57373 14.2388V10.7325C8.57373 10.6363 8.66998 10.4713 8.72498 10.4713C9.51153 10.3832 10.3074 10.4344 11.0762 10.6225C11.4631 10.7286 11.8022 10.9636 12.0373 11.2887C12.2723 11.6138 12.3893 12.0094 12.3687 12.41Z" fill="#F3E7D5"/>
<path d="M21.375 0.75H7.625C5.80164 0.75 4.05295 1.47433 2.76364 2.76364C1.47433 4.05295 0.75 5.80164 0.75 7.625V21.375C0.75 23.1984 1.47433 24.947 2.76364 26.2364C4.05295 27.5257 5.80164 28.25 7.625 28.25H21.375C23.1984 28.25 24.947 27.5257 26.2364 26.2364C27.5257 24.947 28.25 23.1984 28.25 21.375V7.625C28.25 5.80164 27.5257 4.05295 26.2364 2.76364C24.947 1.47433 23.1984 0.75 21.375 0.75ZM13.125 15.875C12.4311 16.3157 11.6358 16.5714 10.815 16.6175H8.9725C8.5875 16.6175 8.5875 16.6175 8.5875 16.9888V20.1787C8.5875 20.4537 8.505 20.5362 8.23 20.5362H6.415C6.15375 20.5362 6.085 20.44 6.085 20.1925V8.60125C6.085 8.32625 6.085 8.24375 6.42875 8.24375H10.7325C11.5181 8.26504 12.285 8.48755 12.96 8.89C13.5429 9.21847 14.0283 9.69573 14.3665 10.2731C14.7046 10.8504 14.8836 11.5072 14.885 12.1763C14.9645 12.8954 14.842 13.6226 14.5311 14.2759C14.2202 14.9293 13.7332 15.4831 13.125 15.875ZM21.265 20.4125C20.0692 20.8784 18.76 20.9695 17.5112 20.6737C17.1363 20.5912 16.7697 20.4813 16.4113 20.3438C16.356 20.3178 16.3074 20.2795 16.2692 20.2319C16.2311 20.1842 16.2044 20.1284 16.1912 20.0687V17.9925C16.6312 18.1575 17.0437 18.35 17.47 18.4875C18.1844 18.7158 18.9407 18.7816 19.6838 18.68C19.8323 18.6525 19.9743 18.6067 20.11 18.5425C20.1906 18.5072 20.2606 18.4516 20.3133 18.3812C20.366 18.3107 20.3995 18.2278 20.4106 18.1406C20.4217 18.0533 20.41 17.9646 20.3766 17.8833C20.3431 17.8019 20.2892 17.7306 20.22 17.6763C19.9055 17.4585 19.5691 17.2742 19.2163 17.1262C18.6525 16.8512 18.075 16.6312 17.5387 16.315C17.0546 16.0794 16.6593 15.694 16.4116 15.2159C16.1639 14.7379 16.077 14.1926 16.1637 13.6613C16.2337 13.1498 16.4462 12.6684 16.7768 12.272C17.1075 11.8757 17.5431 11.5804 18.0337 11.42C18.9181 11.121 19.8617 11.0408 20.7837 11.1863C21.2237 11.1862 21.65 11.3513 22.09 11.4338C22.3238 11.4338 22.4062 11.6263 22.3925 11.86V13.4688C22.3925 13.7712 22.3237 13.7987 22.0487 13.6887C21.19 13.2912 20.2407 13.1298 19.2987 13.2212C19.1653 13.2368 19.0353 13.2739 18.9137 13.3312C18.8313 13.3636 18.7587 13.417 18.7032 13.4861C18.6476 13.5552 18.6111 13.6375 18.5972 13.725C18.5833 13.8126 18.5926 13.9022 18.6239 13.9851C18.6553 14.0679 18.7078 14.1412 18.7762 14.1975C19.1741 14.4624 19.5912 14.6916 20.0275 14.885C20.55 15.1462 21.1 15.3525 21.6087 15.6412C22.0704 15.8513 22.4528 16.2034 22.7002 16.6462C22.9475 17.089 23.0469 17.5993 22.9837 18.1025C22.9403 18.6045 22.7541 19.0836 22.4471 19.4832C22.1401 19.8828 21.7251 20.1862 21.2512 20.3575L21.265 20.4125Z" fill="#F3E7D5"/>
</g>
<defs>
<clipPath id="clip0_70_81">
<rect width="29" height="29" fill="white"/>
</clipPath>
</defs>
</svg>
