<svg width="27" height="27" viewBox="0 0 27 27" fill="none" xmlns="http://www.w3.org/2000/svg">
<g clip-path="url(#clip0_79_16)">
<path d="M10.6101 8.12109H9.04919V12.4875H10.6101C11.6648 12.4875 12.5297 11.6227 12.5297 10.568V10.0617C12.5297 8.98594 11.6648 8.12109 10.6101 8.12109Z" fill="#F3E7D5"/>
<path d="M0 0V27H27V0H0ZM10.8 14.2383H9.04922V18.7313H7.02422V6.39141H10.9266C12.9094 6.37031 14.5336 7.95234 14.5547 9.93516V10.4203C14.5547 12.5086 12.8672 14.2172 10.8 14.2383ZM20.5242 11.243C20.5242 11.243 19.0477 11.243 18.3937 11.5172V18.7313H16.2633V10.3148C16.2633 10.3148 18.4148 9.23906 20.5242 9.51328V11.243Z" fill="#F3E7D5"/>
</g>
<defs>
<clipPath id="clip0_79_16">
<rect width="27" height="27" rx="7" fill="white"/>
</clipPath>
</defs>
</svg>
